<?xml version="1.0" encoding="UTF-8"?>
<svg id="Calque_2" data-name="Calque 2" xmlns="http://www.w3.org/2000/svg" viewBox="0 0 761.65 199.92">
  <defs>
    <style>
      .cls-1 {
        letter-spacing: -.02em;
      }

      .cls-2 {
        letter-spacing: -.05em;
      }

      .cls-3 {
        letter-spacing: -.02em;
      }

      .cls-4 {
        letter-spacing: -.02em;
      }

      .cls-5 {
        letter-spacing: -.02em;
      }

      .cls-6 {
        letter-spacing: -.02em;
      }

      .cls-7 {
        letter-spacing: -.04em;
      }

      .cls-8 {
        letter-spacing: -.02em;
      }

      .cls-9 {
        letter-spacing: -.02em;
      }

      .cls-10 {
        font-family: Inter-ExtraLight, Inter;
        font-size: 72px;
        font-variation-settings: 'wght' 200, 'slnt' 0;
        font-weight: 200;
      }

      .cls-10, .cls-11 {
        fill: #fff;
      }

      .cls-12 {
        letter-spacing: -.02em;
      }

      .cls-13 {
        letter-spacing: -.05em;
      }

      .cls-14 {
        letter-spacing: -.03em;
      }

      .cls-11 {
        stroke-width: 0px;
      }

      .cls-15 {
        letter-spacing: -.04em;
      }
    </style>
  </defs>
  <g id="Calque_1-2" data-name="Calque 1">
    <g>
      <g id="NxS7nq.tif">
        <g>
          <path class="cls-11" d="m122.43,113.06v-3.26c0-20.27-.03-40.55.05-60.82,0-2.14-.77-3.24-2.55-4.26-11.55-6.6-23.02-13.31-34.54-19.96-6.87-3.96-13.76-7.86-21.11-12.05,3.34-1.98,6.32-3.8,9.35-5.55,3.8-2.2,7.69-4.25,11.41-6.56,1.36-.84,2.31-.76,3.58-.02,7.86,4.56,15.76,9.05,23.62,13.59,10.37,5.99,20.7,12.04,31.1,17.99,1.36.77,1.81,1.64,1.81,3.15-.04,21.02-.02,42.04-.07,63.06,0,.85-.36,2.12-.98,2.48-6.83,4.06-13.75,7.99-20.64,11.94-.19.11-.45.12-1.04.26Z"/>
          <path class="cls-11" d="m0,75.75C0,67.32-.02,59.1.06,50.89c0-.62.73-1.47,1.34-1.82,16.5-9.55,33.02-19.05,49.54-28.55,1.01-.58,2.11-1.05,2.98-1.79,2.9-2.46,5.43-2,8.63-.1,16.63,9.88,33.34,19.62,50.21,29.07,3.06,1.71,3.71,3.53,3.62,6.6-.18,6.23-.05,12.47-.05,18.71v2.87c-4.24-2.41-8.11-4.58-11.95-6.8-10.24-5.9-20.46-11.83-30.7-17.74-4.65-2.69-9.37-5.27-13.95-8.08-1.22-.75-1.95-.68-3.09-.01-18.49,10.75-37,21.45-55.51,32.15-.21.12-.46.15-1.13.34Z"/>
          <path class="cls-11" d="m57.29,124.56c5.61,3.2,10.76,6.13,15.9,9.09,8.16,4.7,16.3,9.43,24.45,14.15,4.86,2.81,9.82,5.47,14.56,8.49,2.25,1.43,3.98,1.43,6.24.11,17.73-10.36,35.52-20.63,53.3-30.91.48-.28,1.02-.47,1.88-.86,0,3.62,0,6.98,0,10.35,0,4.24-.14,8.48.06,12.71.1,2.11-.59,3.28-2.39,4.3-10.01,5.68-19.96,11.47-29.93,17.22-8.11,4.68-16.23,9.33-24.3,14.06-1.22.72-2.07.76-3.34.02-11.19-6.55-22.43-13.01-33.66-19.5-7.15-4.14-14.3-8.26-21.41-12.46-.6-.35-1.28-1.18-1.29-1.8-.09-8.14-.06-16.27-.06-24.96Z"/>
          <path class="cls-11" d="m51.42,87.03c0,14.65,0,29.03,0,43.41,0,6.98.06,13.97-.04,20.95-.03,1.88.5,2.92,2.23,3.91,18.3,10.45,36.53,21.03,54.78,31.57.27.15.48.39.97.79-4.07,2.39-7.98,4.7-11.9,6.98-2.79,1.63-5.55,3.34-8.44,4.75-1.03.5-2.73.76-3.62.25-18.37-10.5-36.65-21.14-54.99-31.69-1.18-.68-1.58-1.39-1.58-2.71.04-21.2.02-42.4.08-63.6,0-.84.45-2.09,1.09-2.47,6.77-4.01,13.62-7.89,20.45-11.8.2-.11.44-.16.98-.35Z"/>
          <path class="cls-11" d="m92.95,138.01c4.52-2.63,8.78-5.14,13.06-7.61,14.35-8.28,28.71-16.57,43.09-24.8,1.49-.85,1.99-1.85,1.99-3.56-.06-20.45-.04-40.9-.04-61.35,0-.98,0-1.96,0-3.32,3.89,2.19,7.48,4.19,11.04,6.23,3.01,1.72,5.95,3.58,9,5.23,1.76.95,2.6,2.02,2.58,4.2-.1,20.62-.08,41.24-.02,61.85,0,1.87-.46,2.93-2.19,3.91-17.76,10.17-35.46,20.46-53.16,30.73-1.8,1.04-3.35,1.6-5.46.29-6.11-3.78-12.4-7.28-18.61-10.9-.34-.2-.65-.45-1.29-.9Z"/>
          <path class="cls-11" d="m80.8,62.39c-8.28,4.79-16.22,9.39-24.16,13.97-10.91,6.29-21.8,12.61-32.75,18.83-1.42.81-1.33,1.89-1.33,3.14,0,20.53,0,41.06,0,61.59,0,.9,0,1.81,0,3.16-4.67-2.66-9.03-5.13-13.38-7.63-2.58-1.48-5.17-2.94-7.64-4.58-.72-.48-1.48-1.57-1.48-2.38-.08-21.28-.08-42.55,0-63.83,0-.83.72-2.01,1.44-2.43,14.65-8.59,29.36-17.09,44.05-25.6,3.73-2.16,7.44-4.35,11.21-6.43.68-.37,1.84-.63,2.42-.31,7.11,4.03,14.16,8.17,21.61,12.51Z"/>
        </g>
      </g>
      <text class="cls-10" transform="translate(241.16 119.55)"><tspan class="cls-1" x="0" y="0">s</tspan><tspan class="cls-14" x="34.81" y="0">a</tspan><tspan class="cls-2" x="72.09" y="0">f</tspan><tspan class="cls-3" x="93.35" y="0">e</tspan><tspan class="cls-5" x="133.64" y="0">p</tspan><tspan class="cls-12" x="174.88" y="0">l</tspan><tspan class="cls-4" x="189.37" y="0">a</tspan><tspan class="cls-6" x="227.36" y="0">c</tspan><tspan class="cls-15" x="265.54" y="0">e</tspan><tspan class="cls-13" x="304.67" y="0">t</tspan><tspan class="cls-7" x="326.55" y="0">ow</tspan><tspan class="cls-9" x="420.06" y="0">o</tspan><tspan class="cls-8" x="460.83" y="0">r</tspan><tspan x="484.05" y="0">k</tspan></text>
    </g>
  </g>
</svg>